<svg width="286" height="286" viewBox="0 0 286 286" fill="none" xmlns="http://www.w3.org/2000/svg">
<path d="M96.449 161.122L119.477 203.267H76.7498L57.3066 167.251H38.8866V203.267H0V75.5944H71.1215C100.542 75.5944 119.221 91.9232 119.221 121.288C119.221 140.184 110.522 153.72 96.449 161.122ZM38.8866 108.776V134.055H66.5165C74.7032 134.055 79.8198 129.204 79.8198 121.288C79.8198 113.372 74.7032 108.776 66.5165 108.776H38.8866Z" fill="url(#paint0_linear_21_2)"/>
<path d="M265.727 170.93C249.246 192.372 211.669 218 176.233 218C145.114 218 126 195.777 126 168.972C126 103.207 246.462 63.8542 276.462 69.5438C282.54 70.6923 286.595 75.1026 285.928 81.3276C283.088 107.744 221.23 165.11 173.744 156.49C163.332 154.597 166.136 144.636 175.955 144.624C218.838 144.583 264.628 88.1984 261.987 84.9776C259.739 82.2391 191.754 103.882 163.692 136.617C137.454 167.231 158.018 192.352 184.343 192.148C200.763 192.017 228.718 186.409 258.942 163.262C269.341 155.3 270.175 165.138 265.736 170.922L265.727 170.93Z" fill="url(#paint1_linear_21_2)"/>
<defs>
<linearGradient id="paint0_linear_21_2" x1="0" y1="139.578" x2="800" y2="139.578" gradientUnits="userSpaceOnUse">
<stop stop-color="#0000F7"/>
<stop offset="1" stop-color="#09CAFB"/>
</linearGradient>
<linearGradient id="paint1_linear_21_2" x1="0" y1="139.578" x2="800" y2="139.578" gradientUnits="userSpaceOnUse">
<stop stop-color="#0000F7"/>
<stop offset="1" stop-color="#09CAFB"/>
</linearGradient>
</defs>
</svg>
